<svg xmlns="http://www.w3.org/2000/svg" width="1920" height="871" style="cursor: move;"><g transform="translate(-1185.8393247182794,-596.5644546186031) scale(2.269843782688607)"><path class="link" marker-end="" d="M870,325.5, 980,425.5" style="stroke-width: 0.5; stroke-opacity: 1; stroke: rgb(80, 80, 80);"></path><path class="link" marker-end="" d="M870,365.5, 980,425.5" style="stroke-width: 0.5; stroke-opacity: 1; stroke: rgb(80, 80, 80);"></path><path class="link" marker-end="" d="M870,405.5, 980,425.5" style="stroke-width: 0.5; stroke-opacity: 1; stroke: rgb(80, 80, 80);"></path><path class="link" marker-end="" d="M870,445.5, 980,425.5" style="stroke-width: 0.5; stroke-opacity: 1; stroke: rgb(80, 80, 80);"></path><path class="link" marker-end="" d="M870,485.5, 980,425.5" style="stroke-width: 0.5; stroke-opacity: 1; stroke: rgb(80, 80, 80);"></path><path class="link" marker-end="" d="M870,525.5, 980,425.5" style="stroke-width: 0.5; stroke-opacity: 1; stroke: rgb(80, 80, 80);"></path><path class="link" marker-end="" d="M980,425.5, 1090,425.5" style="stroke-width: 0.5; stroke-opacity: 1; stroke: rgb(80, 80, 80);"></path><circle r="10" class="node" id="0_0" cx="870" cy="325.5" style="fill: rgb(210, 30, 30); stroke: rgb(51, 51, 51);"></circle><circle r="10" class="node" id="0_1" cx="870" cy="365.5" style="fill: rgb(210, 30, 30); stroke: rgb(51, 51, 51);"></circle><circle r="10" class="node" id="0_2" cx="870" cy="405.5" style="fill: rgb(210, 30, 30); stroke: rgb(51, 51, 51);"></circle><circle r="10" class="node" id="0_3" cx="870" cy="445.5" style="fill: rgb(210, 30, 30); stroke: rgb(51, 51, 51);"></circle><circle r="10" class="node" id="0_4" cx="870" cy="485.5" style="fill: rgb(210, 30, 30); stroke: rgb(51, 51, 51);"></circle><circle r="10" class="node" id="0_5" cx="870" cy="525.5" style="fill: rgb(210, 30, 30); stroke: rgb(51, 51, 51);"></circle><circle r="10" class="node" id="1_0" cx="980" cy="425.5" style="fill: rgb(210, 30, 30); stroke: rgb(51, 51, 51);"></circle><text class="text" dy=".35em" x="835" y="565.5" style="font-size: 12px;">Input Layer ∈ ℝ⁶</text><text class="text" dy=".35em" x="945" y="565.5" style="font-size: 12px;">Hidden Layer ∈ ℝ¹</text><circle r="10" class="node" id="2_0" cx="1090" cy="425.5" style="fill: rgb(210, 30, 30); stroke: rgb(51, 51, 51);"></circle><text class="text" dy=".35em" x="1055" y="565.5" style="font-size: 12px;">Output Layer ∈ ℝ¹</text></g><defs><marker id="arrow" viewBox="0 -5 10 10" markerWidth="7" markerHeight="7" orient="auto" refX="40"><path d="M0,-5L10,0L0,5" style="stroke: rgb(80, 80, 80); fill: none;"></path></marker></defs></svg>