<svg xmlns="http://www.w3.org/2000/svg" width="1920" height="811" style="cursor: move;"><g transform="translate(-167.58818548821955,-164.01577654081802) scale(1.2813121970585974)"><path class="link" marker-end="" d="M560,155.5, 998,329.5" style="stroke-width: 0.697869; stroke-opacity: 1; stroke: rgb(80, 80, 80); opacity: 1;"></path><path class="link" marker-end="" d="M560,155.5, 998,387.5" style="stroke-width: 0.328395; stroke-opacity: 1; stroke: rgb(80, 80, 80); opacity: 1;"></path><path class="link" marker-end="" d="M560,155.5, 998,445.5" style="stroke-width: 1.34948; stroke-opacity: 1; stroke: rgb(80, 80, 80); opacity: 1;"></path><path class="link" marker-end="" d="M560,155.5, 998,503.5" style="stroke-width: 0.979936; stroke-opacity: 1; stroke: rgb(80, 80, 80); opacity: 1;"></path><path class="link" marker-end="" d="M560,155.5, 998,561.5" style="stroke-width: 0.439042; stroke-opacity: 1; stroke: rgb(80, 80, 80); opacity: 1;"></path><path class="link" marker-end="" d="M560,213.5, 998,329.5" style="stroke-width: 0.173997; stroke-opacity: 1; stroke: rgb(80, 80, 80); opacity: 1;"></path><path class="link" marker-end="" d="M560,213.5, 998,387.5" style="stroke-width: 0.589244; stroke-opacity: 1; stroke: rgb(80, 80, 80); opacity: 1;"></path><path class="link" marker-end="" d="M560,213.5, 998,445.5" style="stroke-width: 0.146; stroke-opacity: 1; stroke: rgb(80, 80, 80); opacity: 1;"></path><path class="link" marker-end="" d="M560,213.5, 998,503.5" style="stroke-width: 1.13945; stroke-opacity: 1; stroke: rgb(80, 80, 80); opacity: 1;"></path><path class="link" marker-end="" d="M560,213.5, 998,561.5" style="stroke-width: 0.275505; stroke-opacity: 1; stroke: rgb(80, 80, 80); opacity: 1;"></path><path class="link" marker-end="" d="M560,271.5, 998,329.5" style="stroke-width: 0.252653; stroke-opacity: 1; stroke: rgb(80, 80, 80); opacity: 1;"></path><path class="link" marker-end="" d="M560,271.5, 998,387.5" style="stroke-width: 0.736684; stroke-opacity: 1; stroke: rgb(80, 80, 80); opacity: 1;"></path><path class="link" marker-end="" d="M560,271.5, 998,445.5" style="stroke-width: 1.28612; stroke-opacity: 1; stroke: rgb(80, 80, 80); opacity: 1;"></path><path class="link" marker-end="" d="M560,271.5, 998,503.5" style="stroke-width: 1.50452; stroke-opacity: 1; stroke: rgb(80, 80, 80); opacity: 1;"></path><path class="link" marker-end="" d="M560,271.5, 998,561.5" style="stroke-width: 0.747637; stroke-opacity: 1; stroke: rgb(80, 80, 80); opacity: 1;"></path><path class="link" marker-end="" d="M560,329.5, 998,329.5" style="stroke-width: 1.24166; stroke-opacity: 1; stroke: rgb(80, 80, 80); opacity: 1;"></path><path class="link" marker-end="" d="M560,329.5, 998,387.5" style="stroke-width: 1.40179; stroke-opacity: 1; stroke: rgb(80, 80, 80); opacity: 1;"></path><path class="link" marker-end="" d="M560,329.5, 998,445.5" style="stroke-width: 1.01415; stroke-opacity: 1; stroke: rgb(80, 80, 80); opacity: 1;"></path><path class="link" marker-end="" d="M560,329.5, 998,503.5" style="stroke-width: 0.243659; stroke-opacity: 1; stroke: rgb(80, 80, 80); opacity: 1;"></path><path class="link" marker-end="" d="M560,329.5, 998,561.5" style="stroke-width: 1.14905; stroke-opacity: 1; stroke: rgb(80, 80, 80); opacity: 1;"></path><path class="link" marker-end="" d="M560,387.5, 998,329.5" style="stroke-width: 0.571; stroke-opacity: 1; stroke: rgb(80, 80, 80); opacity: 1;"></path><path class="link" marker-end="" d="M560,387.5, 998,387.5" style="stroke-width: 0.091724; stroke-opacity: 1; stroke: rgb(80, 80, 80); opacity: 1;"></path><path class="link" marker-end="" d="M560,387.5, 998,445.5" style="stroke-width: 1.34745; stroke-opacity: 1; stroke: rgb(80, 80, 80); opacity: 1;"></path><path class="link" marker-end="" d="M560,387.5, 998,503.5" style="stroke-width: 0.775615; stroke-opacity: 1; stroke: rgb(80, 80, 80); opacity: 1;"></path><path class="link" marker-end="" d="M560,387.5, 998,561.5" style="stroke-width: 1.01282; stroke-opacity: 1; stroke: rgb(80, 80, 80); opacity: 1;"></path><path class="link" marker-end="" d="M560,445.5, 998,329.5" style="stroke-width: 0.724652; stroke-opacity: 1; stroke: rgb(80, 80, 80); opacity: 1;"></path><path class="link" marker-end="" d="M560,445.5, 998,387.5" style="stroke-width: 1.5477; stroke-opacity: 1; stroke: rgb(80, 80, 80); opacity: 1;"></path><path class="link" marker-end="" d="M560,445.5, 998,445.5" style="stroke-width: 0.220901; stroke-opacity: 1; stroke: rgb(80, 80, 80); opacity: 1;"></path><path class="link" marker-end="" d="M560,445.5, 998,503.5" style="stroke-width: 0.76785; stroke-opacity: 1; stroke: rgb(80, 80, 80); opacity: 1;"></path><path class="link" marker-end="" d="M560,445.5, 998,561.5" style="stroke-width: 1.12345; stroke-opacity: 1; stroke: rgb(80, 80, 80); opacity: 1;"></path><path class="link" marker-end="" d="M560,503.5, 998,329.5" style="stroke-width: 1.55813; stroke-opacity: 1; stroke: rgb(80, 80, 80); opacity: 1;"></path><path class="link" marker-end="" d="M560,503.5, 998,387.5" style="stroke-width: 1.16584; stroke-opacity: 1; stroke: rgb(80, 80, 80); opacity: 1;"></path><path class="link" marker-end="" d="M560,503.5, 998,445.5" style="stroke-width: 0.702383; stroke-opacity: 1; stroke: rgb(80, 80, 80); opacity: 1;"></path><path class="link" marker-end="" d="M560,503.5, 998,503.5" style="stroke-width: 0.688902; stroke-opacity: 1; stroke: rgb(80, 80, 80); opacity: 1;"></path><path class="link" marker-end="" d="M560,503.5, 998,561.5" style="stroke-width: 0.365441; stroke-opacity: 1; stroke: rgb(80, 80, 80); opacity: 1;"></path><path class="link" marker-end="" d="M560,561.5, 998,329.5" style="stroke-width: 1.04733; stroke-opacity: 1; stroke: rgb(80, 80, 80); opacity: 1;"></path><path class="link" marker-end="" d="M560,561.5, 998,387.5" style="stroke-width: 0.00670521; stroke-opacity: 1; stroke: rgb(80, 80, 80); opacity: 1;"></path><path class="link" marker-end="" d="M560,561.5, 998,445.5" style="stroke-width: 1.45558; stroke-opacity: 1; stroke: rgb(80, 80, 80); opacity: 1;"></path><path class="link" marker-end="" d="M560,561.5, 998,503.5" style="stroke-width: 0.729989; stroke-opacity: 1; stroke: rgb(80, 80, 80); opacity: 1;"></path><path class="link" marker-end="" d="M560,561.5, 998,561.5" style="stroke-width: 0.393227; stroke-opacity: 1; stroke: rgb(80, 80, 80); opacity: 1;"></path><path class="link" marker-end="" d="M560,619.5, 998,329.5" style="stroke-width: 1.50596; stroke-opacity: 1; stroke: rgb(80, 80, 80); opacity: 1;"></path><path class="link" marker-end="" d="M560,619.5, 998,387.5" style="stroke-width: 1.6518; stroke-opacity: 1; stroke: rgb(80, 80, 80); opacity: 1;"></path><path class="link" marker-end="" d="M560,619.5, 998,445.5" style="stroke-width: 0.40853; stroke-opacity: 1; stroke: rgb(80, 80, 80); opacity: 1;"></path><path class="link" marker-end="" d="M560,619.5, 998,503.5" style="stroke-width: 0.981688; stroke-opacity: 1; stroke: rgb(80, 80, 80); opacity: 1;"></path><path class="link" marker-end="" d="M560,619.5, 998,561.5" style="stroke-width: 1.0415; stroke-opacity: 1; stroke: rgb(80, 80, 80); opacity: 1;"></path><path class="link" marker-end="" d="M560,677.5, 998,329.5" style="stroke-width: 1.08569; stroke-opacity: 1; stroke: rgb(80, 80, 80); opacity: 1;"></path><path class="link" marker-end="" d="M560,677.5, 998,387.5" style="stroke-width: 1.3504; stroke-opacity: 1; stroke: rgb(80, 80, 80); opacity: 1;"></path><path class="link" marker-end="" d="M560,677.5, 998,445.5" style="stroke-width: 0.556295; stroke-opacity: 1; stroke: rgb(80, 80, 80); opacity: 1;"></path><path class="link" marker-end="" d="M560,677.5, 998,503.5" style="stroke-width: 0.115456; stroke-opacity: 1; stroke: rgb(80, 80, 80); opacity: 1;"></path><path class="link" marker-end="" d="M560,677.5, 998,561.5" style="stroke-width: 0.783131; stroke-opacity: 1; stroke: rgb(80, 80, 80); opacity: 1;"></path><path class="link" marker-end="" d="M998,271.5, 1436,387.5" style="stroke-width: 1.11202; stroke-opacity: 1; stroke: rgb(80, 80, 80); opacity: 1;"></path><path class="link" marker-end="" d="M998,271.5, 1436,445.5" style="stroke-width: 0.55489; stroke-opacity: 1; stroke: rgb(80, 80, 80); opacity: 1;"></path><path class="link" marker-end="" d="M998,329.5, 1436,387.5" style="stroke-width: 1.34833; stroke-opacity: 1; stroke: rgb(80, 80, 80); opacity: 1;"></path><path class="link" marker-end="" d="M998,329.5, 1436,445.5" style="stroke-width: 1.21748; stroke-opacity: 1; stroke: rgb(80, 80, 80); opacity: 1;"></path><path class="link" marker-end="" d="M998,387.5, 1436,387.5" style="stroke-width: 1.26624; stroke-opacity: 1; stroke: rgb(80, 80, 80); opacity: 1;"></path><path class="link" marker-end="" d="M998,387.5, 1436,445.5" style="stroke-width: 0.75551; stroke-opacity: 1; stroke: rgb(80, 80, 80); opacity: 1;"></path><path class="link" marker-end="" d="M998,445.5, 1436,387.5" style="stroke-width: 0.450289; stroke-opacity: 1; stroke: rgb(80, 80, 80); opacity: 1;"></path><path class="link" marker-end="" d="M998,445.5, 1436,445.5" style="stroke-width: 1.09143; stroke-opacity: 1; stroke: rgb(80, 80, 80); opacity: 1;"></path><path class="link" marker-end="" d="M998,503.5, 1436,387.5" style="stroke-width: 1.33755; stroke-opacity: 1; stroke: rgb(80, 80, 80); opacity: 1;"></path><path class="link" marker-end="" d="M998,503.5, 1436,445.5" style="stroke-width: 0.5443; stroke-opacity: 1; stroke: rgb(80, 80, 80); opacity: 1;"></path><path class="link" marker-end="" d="M998,561.5, 1436,387.5" style="stroke-width: 0.396533; stroke-opacity: 1; stroke: rgb(80, 80, 80); opacity: 1;"></path><path class="link" marker-end="" d="M998,561.5, 1436,445.5" style="stroke-width: 0.330415; stroke-opacity: 1; stroke: rgb(80, 80, 80); opacity: 1;"></path><path class="link" marker-end="" d="M560,155.5, 998,271.5" style="stroke-width: 0.914234; stroke-opacity: 1; stroke: rgb(80, 80, 80); opacity: 1;"></path><path class="link" marker-end="" d="M560,213.5, 998,271.5" style="stroke-width: 0.801861; stroke-opacity: 1; stroke: rgb(80, 80, 80); opacity: 1;"></path><path class="link" marker-end="" d="M560,271.5, 998,271.5" style="stroke-width: 1.07908; stroke-opacity: 1; stroke: rgb(80, 80, 80); opacity: 1;"></path><path class="link" marker-end="" d="M560,329.5, 998,271.5" style="stroke-width: 0.494983; stroke-opacity: 1; stroke: rgb(80, 80, 80); opacity: 1;"></path><path class="link" marker-end="" d="M560,387.5, 998,271.5" style="stroke-width: 0.98965; stroke-opacity: 1; stroke: rgb(80, 80, 80); opacity: 1;"></path><path class="link" marker-end="" d="M560,445.5, 998,271.5" style="stroke-width: 1.37343; stroke-opacity: 1; stroke: rgb(80, 80, 80); opacity: 1;"></path><path class="link" marker-end="" d="M560,503.5, 998,271.5" style="stroke-width: 0.994654; stroke-opacity: 1; stroke: rgb(80, 80, 80); opacity: 1;"></path><path class="link" marker-end="" d="M560,561.5, 998,271.5" style="stroke-width: 0.544361; stroke-opacity: 1; stroke: rgb(80, 80, 80); opacity: 1;"></path><path class="link" marker-end="" d="M560,619.5, 998,271.5" style="stroke-width: 0.378388; stroke-opacity: 1; stroke: rgb(80, 80, 80); opacity: 1;"></path><path class="link" marker-end="" d="M560,677.5, 998,271.5" style="stroke-width: 0.543751; stroke-opacity: 1; stroke: rgb(80, 80, 80); opacity: 1;"></path><circle r="19" class="node" id="0_0" cx="560" cy="155.5" style="fill: rgb(204, 15, 15); stroke: rgb(51, 51, 51); opacity: 1;"></circle><circle r="19" class="node" id="0_1" cx="560" cy="213.5" style="fill: rgb(204, 15, 15); stroke: rgb(51, 51, 51); opacity: 1;"></circle><circle r="19" class="node" id="0_2" cx="560" cy="271.5" style="fill: rgb(204, 15, 15); stroke: rgb(51, 51, 51); opacity: 1;"></circle><circle r="19" class="node" id="0_3" cx="560" cy="329.5" style="fill: rgb(204, 15, 15); stroke: rgb(51, 51, 51); opacity: 1;"></circle><circle r="19" class="node" id="0_4" cx="560" cy="387.5" style="fill: rgb(204, 15, 15); stroke: rgb(51, 51, 51); opacity: 1;"></circle><circle r="19" class="node" id="0_5" cx="560" cy="445.5" style="fill: rgb(204, 15, 15); stroke: rgb(51, 51, 51); opacity: 1;"></circle><circle r="19" class="node" id="0_6" cx="560" cy="503.5" style="fill: rgb(204, 15, 15); stroke: rgb(51, 51, 51); opacity: 1;"></circle><circle r="19" class="node" id="0_7" cx="560" cy="561.5" style="fill: rgb(204, 15, 15); stroke: rgb(51, 51, 51); opacity: 1;"></circle><circle r="19" class="node" id="0_8" cx="560" cy="619.5" style="fill: rgb(204, 15, 15); stroke: rgb(51, 51, 51); opacity: 1;"></circle><circle r="19" class="node" id="0_9" cx="560" cy="677.5" style="fill: rgb(204, 15, 15); stroke: rgb(51, 51, 51); opacity: 1;"></circle><circle r="19" class="node" id="1_0" cx="998" cy="271.5" style="fill: rgb(204, 15, 15); stroke: rgb(51, 51, 51); opacity: 1;"></circle><circle r="19" class="node" id="1_1" cx="998" cy="329.5" style="fill: rgb(204, 15, 15); stroke: rgb(51, 51, 51); opacity: 1;"></circle><circle r="19" class="node" id="1_2" cx="998" cy="387.5" style="fill: rgb(204, 15, 15); stroke: rgb(51, 51, 51); opacity: 1;"></circle><circle r="19" class="node" id="1_3" cx="998" cy="445.5" style="fill: rgb(204, 15, 15); stroke: rgb(51, 51, 51); opacity: 1;"></circle><circle r="19" class="node" id="1_4" cx="998" cy="503.5" style="fill: rgb(204, 15, 15); stroke: rgb(51, 51, 51); opacity: 1;"></circle><circle r="19" class="node" id="1_5" cx="998" cy="561.5" style="fill: rgb(204, 15, 15); stroke: rgb(51, 51, 51); opacity: 1;"></circle><circle r="19" class="node" id="2_0" cx="1436" cy="387.5" style="fill: rgb(204, 15, 15); stroke: rgb(51, 51, 51); opacity: 1;"></circle><circle r="19" class="node" id="2_1" cx="1436" cy="445.5" style="fill: rgb(204, 15, 15); stroke: rgb(51, 51, 51); opacity: 1;"></circle><text class="text" dy=".35em" x="525" y="735.5" style="font-size: 12px;">Input Layer ∈ ℝ¹⁰</text><text class="text" dy=".35em" x="963" y="735.5" style="font-size: 12px;">Hidden Layer ∈ ℝ⁶</text><text class="text" dy=".35em" x="1401" y="735.5" style="font-size: 12px;">Output Layer ∈ ℝ²</text></g><defs><marker id="arrow" viewBox="0 -5 10 10" markerWidth="7" markerHeight="7" orient="auto" refX="65.19999999999999"><path d="M0,-5L10,0L0,5" style="stroke: rgb(80, 80, 80); fill: rgb(80, 80, 80);"></path></marker></defs></svg>